<?xml version="1.0" encoding="UTF-8"?>
<svg version="1.1" viewBox="0 0 900 900" width="225" height="225" xmlns="http://www.w3.org/2000/svg">
<path transform="translate(0)" d="m0 0h900v900h-900z" fill="#FDFEFE"/>
<path transform="translate(452,25)" d="m0 0h6l16 9 11 6 28 16 23 13 19 11 21 12 26 15 10 6 12 6 13 8 16 9 24 14 25 14 52 30 56 32 17 10 1 3v421l-5 4-19 11-27 15-24 14-20 11-23 13-12 7-21 12-15 9-12 6-15 9-85 48-26 15-15 8-10 6-16 9-13 8-11 6h-7l-26-14-26-15-18-10-28-16-32-18-18-10-10-6-27-15-24-14-16-9-2-5 1-422 9-6 24-13 22-13 16-9 11-7 11-6 10-6 11-6 24-14 20-11 22-13 13-7 11-6 16-9 6-4h6l18 10 14 8 17 10 28 16 24 14 18 10 22 13 49 28 24 14 12 8 1 1v257l-6 5-11 6-21 12-16 9-14 8-9 5-19 11-14 8-24 14-32 18-22 13-11 6-16 9-8 5-5 2-6-1-15-8-16-8-21-11-19-10-11-6-2-2v-256l2-5 22-13 13-8 17-10 13-8 18-11h7l18 11 25 15 19 12v3l-8 5-51 30-19 12-5 3-1 3v163l1 12 4 3 10 5 1 1h6l11-7 16-9 15-9 14-8 24-14 28-16 13-8 11-6 10-6 9-5 2-2 1-19v-155l-2-5-18-11-56-32-19-11-17-10-16-9-17-10-9-6h-8l-10 6-18 10-12 7-6 3-15 9-33 18-16 9-21 12-18 10-4 1-1 7v324l1 14 9 6 18 10 24 14 27 15 24 14 23 13 26 15 4 2 7-1 13-8 29-16 14-8 26-15 18-10 17-10 56-32 22-13 25-14 24-14 25-14 23-13 3-3v-341l-3-3-21-12-27-15-16-9-23-13-24-13-10-6-27-15-17-10-11-6-15-8-22-12-13-8-18-10-11-6-21-12-12-7-6-3-8 1-18 10-28 16-23 13-31 17-21 12-22 12-23 13-22 12-21 12-22 12-24 14-27 15-12 7h-2l-1 102v324l-8-4-17-10-27-15-17-10-1-1v-425l23-13 24-14 39-22 17-10 28-16 23-13 24-14 21-12 18-10 24-14 23-13 28-16 13-8 10-5 17-10 14-8 16-9z" fill="#FD1211"/>
<path transform="translate(81,256)" d="m0 0h1v77l-2-1-2 10-1 14-2 1-1-17v-62l1-15 4-4 1 1z" fill="#F6FEFE"/>
<path transform="translate(90,667)" d="m0 0 6 1 27 15 14 8 1 3-4 2h-6l-8-5-4-6-19-9-5-4z" fill="#F7FEFE"/>
<path transform="translate(581,344)" d="m0 0 4 1 19 11 8 6v12l-1 11-2-3-2-8-6-11-1-3-4-2-10-8z" fill="#F6FFFF"/>
<path transform="translate(743,270)" d="m0 0 6 1 5 5 1 3v12l-7-6-4-7v-6z" fill="#F6FEFE"/>
<path transform="translate(241,754)" d="m0 0 6 2 13 8 9 5v1h-6l-17-10z" fill="#F6FFFF"/>
<path transform="translate(306,790)" d="m0 0 14 8 12 7-4 1-4-2-8-5-3-1v-2l-5-2z" fill="#F6FFFF"/>
<path transform="translate(553,328)" d="m0 0 5 2 12 7 8 4-3 1-9-4-10-6z" fill="#F6FFFF"/>
<path transform="translate(275,773)" d="m0 0 12 6 8 5-3 1-8-3-2-1v-2l-4-1-3-3z" fill="#F6FFFF"/>
</svg>
