<?xml version="1.0" encoding="UTF-8"?>
<svg version="1.1" viewBox="0 0 2048 691" width="444" height="150" xmlns="http://www.w3.org/2000/svg">
<path transform="translate(486,213)" d="m0 0h33l5 8 30 60 6 15 2 1 3-9 23-46 10-19 5-9 1-1h30l1 1v139h-29l-1-1-1-77-9 17-8 16-11 23-3 3h-24l-4-5-8-17-8-16-10-21-1-3h-2v81h-29l-1-11z" fill="#047744"/>
<path transform="translate(740,379)" d="m0 0h33l6 9 19 29 26 39 7 10 1 1v-88h30v140h-33l-8-11-10-16-22-33-11-17-7-11-1 87-1 1h-29z" fill="#037643"/>
<path transform="translate(1114,213)" d="m0 0h32l4 5 12 19 25 37 16 24 3 4v-89h30v140h-34l-32-49-14-21-11-17-1 44v42l-1 1h-29z" fill="#027642"/>
<path transform="translate(1285,376)" d="m0 0h16l20 4 12 6 10 9 6 7 6 12 4 14 2 17-1 21-4 15-7 14-9 10-7 6-12 6-17 4-18 1-16-2-10-3-10-5-10-9-6-7-8-16-4-20v-24l3-15 7-16 9-11 10-8 13-6 12-3zm1 24-10 3-9 6-6 7-5 10-3 12v21l3 12 7 14 9 8 9 4 12 1 10-2 10-5 5-4 6-9 4-10 1-5v-27l-3-11-5-10-7-8-12-6-4-1z" fill="#027642"/>
<path transform="translate(841,210)" d="m0 0 15 1 15 4 11 6 10 9 6 8 5 10 4 14 1 6v31l-4 16-7 14-9 10-7 6-12 6-16 4-9 1h-15l-16-3-12-5-8-6-5-4-9-13-5-11-3-12-1-7v-25l3-15 7-16 8-10 8-7 16-8 13-3zm-7 24-10 3-10 7-6 8-4 8-3 13v20l3 12 4 9 6 8 6 5 8 4 5 1h10l11-3 11-7 6-8 5-12 1-5v-27l-4-14-7-11-9-7-7-3-5-1z" fill="#017542"/>
<path transform="translate(399,210)" d="m0 0 14 1 15 4 13 7 11 11 7 12 5 16 2 19-1 20-4 16-6 12-9 10-9 8-13 6-13 3-9 1h-15l-17-3-12-5-13-10-9-13-5-12-3-12-1-8v-21l3-16 5-12 6-10 7-8 10-7 11-5 13-3zm-8 24-10 3-11 8-6 9-4 10-2 10v17l3 14 6 12 7 8 12 6 4 1h10l9-2 9-5 7-6 5-8 4-12 1-9v-13l-3-16-7-14-9-8-9-4-5-1z" fill="#027642"/>
<path transform="translate(1314,211)" d="m0 0h31l15 4 11 6 10 9 7 10 5 11 3 11 1 7v29l-3 14-5 12-7 10-9 9-12 7-13 4-14 2h-15l-16-3-13-5-11-8-7-8-8-15-4-15-1-7v-25l3-15 7-16 8-10 8-7 16-8zm9 23-10 3-10 7-7 9-5 13-1 6v22l3 12 5 10 9 10 10 5 5 1h10l13-4 10-7 6-9 4-10 1-5v-27l-4-13-4-8-6-7-10-6-8-2z" fill="#017542"/>
<path transform="translate(942,376)" d="m0 0h18l20 4 12 5 7 4-1 5-9 15-5 1-19-7-10-2h-9l-9 2-9 5-5 5-5 8-4 11-1 4v26l4 14 4 8 8 7 9 4 4 1h17l12-3v-31h-31l-1-3 3-20h60v69l-8 5-15 5-15 3-11 1h-10l-16-2-12-4-12-7-9-9-6-10-5-14-2-13v-28l4-18 8-16 10-11 11-7 11-4z" fill="#027642"/>
<path transform="translate(1077,379)" d="m0 0h29l1 1v56h63v-57h30v140h-30v-59h-63v58l-1 1h-29z" fill="#047744"/>
<path transform="translate(528,379)" d="m0 0h30v57h63v-57h30v140h-29l-1-1v-58h-63v58l-1 1h-29z" fill="#057744"/>
<path transform="translate(1418,213)" d="m0 0h30v57l6-5 9-11 11-12 9-11 7-7 7-8 4-3h34l-1 4-11 12-7 8-13 14-7 8-15 16-3 3 1 4 10 11 9 11 10 11 9 11 10 11 9 12 1 4h-37l-13-15-9-11-12-14-9-11-8-9-1 60h-30z" fill="#037643"/>
<path transform="translate(210,213)" d="m0 0h29l1 1v34l-1 22 8-7 9-10 9-11 12-13 7-8 8-8h35l-2 5-7 7-7 8-11 12-7 8-14 15-9 10h-2l6 8 9 10 13 15 9 11 10 11 9 11 4 6v3h-36l-11-12-9-11-12-14-11-14-8-9-2-1 1 6v54l-1 1h-29l-1-110z" fill="#037643"/>
<path transform="translate(1820,379)" d="m0 0h35l2 1 7 20 20 54 17 46 5 14v5h-31l-4-9-9-26h-49l-11 32-2 3h-30l-1-3 20-55 15-40 15-41zm17 35-6 16-10 28v2l2 1h30l1-2-15-43z" fill="#017541"/>
<path transform="translate(1013,213)" d="m0 0h35l3 5 16 44 15 40 17 46v5h-31l-4-8-9-26-1-1h-48l-12 34-1 1h-31l1-6 16-44 33-89zm17 35-4 10-12 34v3h32l1-2-7-19-9-26z" fill="#017541"/>
<path transform="translate(311,379)" d="m0 0h37l19 52 15 40 11 30 5 14v4h-31l-4-8-9-26v-2l-49 1-12 34-1 1h-30l-1-3 15-42 23-62 10-28zm17 35-10 29-5 14v4h32l-1-7-14-40z" fill="#017542"/>
<path transform="translate(1421,376)" d="m0 0h14l14 2 15 5 12 7 1 4-10 16-4 2-17-8-16-4-11 1-8 5-3 4v8l4 5 14 7 26 10 11 6 8 7 6 10 2 6v20l-4 11-6 8-8 6-9 4-14 3-11 1h-9l-16-2-16-5-11-6-4-4 1-6 8-11 2-3 7 1 14 7 11 3 11 1 11-2 7-4 4-5 1-7-3-7-5-4-10-5-28-11-10-6-9-8-5-9-2-9 1-15 6-12 4-5 14-8 12-3z" fill="#027642"/>
<path transform="translate(155,379)" d="m0 0h94v21l-1 2-63 1-1 33h57l-1 12-2 11h-54v37h66v23h-95l-1-6v-133z" fill="#067845"/>
<path transform="translate(1681,213)" d="m0 0h94l1 1-1 21-1 1h-63v34h45l12 1-3 21-1 1h-53v37h65l1 1v21l-1 1h-95z" fill="#017642"/>
<path transform="translate(1501,379)" d="m0 0h61l14 2 16 8 8 9 4 8 2 8v19l-3 10-5 9-6 7-11 7-9 3-17 2h-23l-1 47-1 1h-29zm30 23v45l1 1h22l11-4 6-5 3-5 1-4v-12l-4-8-6-5-9-3z" fill="#057744"/>
<path transform="translate(455,376)" d="m0 0h17l17 3 13 5 9 5-1 5-8 14-2 2-7-1-12-5-13-3h-9l-10 3-9 6-6 9-4 11-2 12v14l3 14 4 9 5 7 8 6 10 4h15l11-3 15-7 4 2 8 14 1 5-5 4-14 6-17 4-9 1h-10l-15-2-12-4-11-6-10-10-8-16-4-17-1-9v-14l2-18 6-18 8-12 8-8 10-6 12-4z" fill="#027642"/>
<path transform="translate(662,213)" d="m0 0h94v23h-64v38h55l-1 16-1 6-3 1h-49l-1 55-1 1h-29l-1-4v-135z" fill="#057845"/>
<path transform="translate(1539,213)" d="m0 0h33l6 9 13 23 9 15 3 6h2l17-28 14-23 2-2h31v4l-10 17-10 16-14 23-12 19-3 5-1 56h-30l-1-55-8-14-14-22-16-26-11-19z" fill="#027643"/>
<path transform="translate(22,379)" d="m0 0h120l1 1v22l-2 1h-42l-1 115-1 1h-29v-117l-2 1h-44z" fill="#067846"/>
<path transform="translate(1669,379)" d="m0 0h120v23l-1 1h-42l-1 1v114l-1 1h-29l-1-4v-93l1-20-22 1h-24l-1-1v-22z" fill="#067845"/>
<path transform="translate(1921,379)" d="m0 0h29l1 1v115h64v23l-1 1h-93z" fill="#057745"/>
<path transform="translate(1621,379)" d="m0 0h29l1 1v138l-1 1h-29z" fill="#067846"/>
<path transform="translate(680,379)" d="m0 0h30v139l-1 1h-28l-1-1z" fill="#057744"/>
<path transform="translate(681,393)" d="m0 0 2 1 2 16 2 26v53l-4 23-2 1z" fill="#006738"/>
<path transform="translate(69,408)" d="m0 0 2 2 2 9 2 36v46l-1 12-3 6h-2z" fill="#006738"/>
<path transform="translate(741,395)" d="m0 0 2 1 2 6 2 22v7l-1 9 1 22v24l-2 13-2 11h-2z" fill="#006738"/>
<path transform="translate(156,409)" d="m0 0h1l3 27 1 11v47l-4 15h-1l-1-19v-78z" fill="#006738"/>
<path transform="translate(1078,401)" d="m0 0h2l3 29v40l-1 24-3 19h-1z" fill="#006738"/>
<path transform="translate(1716,410)" d="m0 0 2 2 1 11 1 30v35l-2 24-2 4h-1v-86z" fill="#006738"/>
<path transform="translate(1922,385)" d="m0 0 2 3 2 34v73l-2 5-1 6h-1z" fill="#006738"/>
<path transform="translate(211,225)" d="m0 0 2 4 2 22 1 24v26l-1 7v11l-2 10h-1l-1-6z" fill="#006738"/>
<path transform="translate(663,230)" d="m0 0 2 4 1 8 1 31 1 9v30l-2 12-2 10h-1z" fill="#006738"/>
<path transform="translate(1624,423)" d="m0 0 2 2 1 27v40l-3 20-2-1v-62l1-23z" fill="#006738"/>
<path transform="translate(1683,242)" d="m0 0h1l2 14 1 24v32l-4 27h-1v-84z" fill="#006738"/>
<path transform="translate(530,407)" d="m0 0h1l2 23 1 15v30l-2 12-2 4h-1v-76z" fill="#006738"/>
<path transform="translate(1012,214)" d="m0 0 3 1-2 9-3 9-11 30-5 16-1 3h-2l-2-2 1-7 13-35z" fill="#036B3C"/>
<path transform="translate(1503,420)" d="m0 0 2 3 1 13 1 42-1 12-2 8h-1z" fill="#006738"/>
<path transform="translate(1629,226)" d="m0 0h2l-1 9-4 11-5 5-6 9-4 2v-6l14-23z" fill="#01693A"/>
<path transform="translate(623,466)" d="m0 0 2 3 1 4v33l-2 12-2-1v-40z" fill="#006738"/>
<path transform="translate(623,388)" d="m0 0h1l2 18v16l-2 10-2-1v-40z" fill="#006738"/>
<path transform="translate(584,260)" d="m0 0 2 1-7 12-4 7-2 5h-2l-2 4-3 3 2-10 8-15 1 4 5-8z" fill="#006838"/>
<path transform="translate(606,295)" d="m0 0 2 3 1 5v29l-1 10-2-4z" fill="#006738"/>
<path transform="translate(896,397)" d="m0 0h2l2 3v3l-4 8-5 4-3-1-1 2 1-6 6-10z" fill="#006939"/>
<path transform="translate(488,269)" d="m0 0h1l1 30 2 19v11l-3 3-1-8z" fill="#006738"/>
<path transform="translate(342,236)" d="m0 0 1 3-5 11-3 11-4 1-1 2 2-10 2-7z" fill="#006939"/>
<path transform="translate(435,273)" d="m0 0 2 1 1 4 1 16-2 7-4 1z" fill="#056D3E"/>
<path transform="translate(1172,469)" d="m0 0h1l1 9v26l-1 8-2 1v-19z" fill="#006738"/>
<path transform="translate(1367,275)" d="m0 0 2 1 1 7v16l-1 2h-4z" fill="#036A3B"/>
<path transform="translate(883,437)" d="m0 0h1l1 6v23h-3v-27z" fill="#006738"/>
<path transform="translate(878,274)" d="m0 0 2 2 1 7v15l-5 4z" fill="#036A3B"/>
<path transform="translate(334,318)" d="m0 0h2l4 6 8 13 6 7-4-2-6-5-9-14z" fill="#066D3E"/>
<path transform="translate(1331,448)" d="m0 0h2v18l-2 3-3-1 1-11z" fill="#036B3C"/>
<path transform="translate(602,215)" d="m0 0 3 1-7 20h-1v-6l-3 3 2-6z" fill="#006B3A"/>
<path transform="translate(1224,438)" d="m0 0 2 4 1 17-2 5-2-3v-22z" fill="#006738"/>
<path transform="translate(267,242)" d="m0 0 2 1-8 10-6 5-1-3 7-8h3l2-4z" fill="#006838"/>
<path transform="translate(1548,230)" d="m0 0 5 4 6 10v3l-3-1-8-13z" fill="#0F7245"/>
<path transform="translate(1236,404)" d="m0 0h3l-1 4h-2l-1 6-4 3-2-1 2-5z" fill="#006738"/>
<path transform="translate(1272,329)" d="m0 0 4 2 9 11v3l-10-9-3-4z" fill="#157549"/>
<path transform="translate(1363,307)" d="m0 0 1 4h2l1 6h-5l-1-4z" fill="#006738"/>
<path transform="translate(1455,297)" d="m0 0 7 6 5 6v2l-4-2-8-10z" fill="#066D3E"/>
<path transform="translate(787,334)" d="m0 0 4 2 8 8-3 1-8-7z" fill="#157549"/>
<path transform="translate(1482,329)" d="m0 0 4 2 5 7-1 3-8-9z" fill="#076E3F"/>
<path transform="translate(342,236)" d="m0 0 1 3-5 11-2-1 1-6z" fill="#006738"/>
<path transform="translate(407,408)" d="m0 0 2 1-1 6-3 3v-3l-2-1 3-5z" fill="#006738"/>
<path transform="translate(430,310)" d="m0 0 4 2 1 4-5 1-1-1v-5z" fill="#006738"/>
<path transform="translate(874,307)" d="m0 0 4 4 1 3-5 1-1-1v-6z" fill="#006738"/>
<path transform="translate(780,244)" d="m0 0 1 3-3 10-3-1 3-9z" fill="#006738"/>
<path transform="translate(783,447)" d="m0 0 4 4 6 7-2 1-5-5-3-4z" fill="#006B3A"/>
</svg>
