<?xml version="1.0" encoding="UTF-8"?>
<svg version="1.1" viewBox="0 0 1941 1392" width="1941" height="1392" xmlns="http://www.w3.org/2000/svg">
<path transform="translate(458,292)" d="m0 0h34l15 2 3 1 14 25 10 17 45 78 14 24 15 26 14 24 15 26 14 24 15 26 14 24 30 52 13 22 9 15 1-383 1-1 17-2h36l15 2 1 1v516l-10 2-12 1h-24l-19-2-4-2-16-28-16-27-15-26-16-27-15-26-17-29-28-48-34-58-14-24-51-87v-2h-2v383l-10 2-12 1h-26l-19-2-2-1v-517z" fill="#FFFFFF"/>
<path transform="translate(905,292)" d="m0 0 27 1 11 1 1 307 2 37 4 28 6 23 6 15 7 12 8 10 10 9 14 8 18 6 18 3h33l18-3 16-5 13-7 11-9 9-11 9-16 6-16 5-21 4-31 1-15 1-323 1-1 11-1h51l11 1 1 1v315l-2 36-3 24-6 29-9 27-8 16-7 12-11 14-15 15-14 10-14 8-14 6-15 5-23 5-16 2-19 1h-16l-29-2-22-4-20-6-21-9-16-10-13-11-11-11-11-15-10-18-9-22-6-23-4-21-3-25-1-13v-335l2-1 10-1z" fill="#FFFFFF"/>
<path transform="translate(1442,286)" d="m0 0h35l24 2 32 5 27 7 17 6 1 2-3 18-5 19-7 20-3 1-18-6-24-6-23-4-24-2h-17l-23 2-17 4-16 7-9 6-8 7-7 11-5 12-2 8-1 9v9l2 14 5 12 6 9 9 10 12 9 16 9 25 11 46 18 29 13 23 13 13 9 10 9 6 5 9 11 9 14 7 15 5 17 3 19 1 14v13l-2 21-5 23-6 16-10 19-10 13-12 13-12 10-15 10-15 8-24 9-25 6-19 3-30 2h-23l-23-1-27-3-26-5-25-7-18-7v-8l5-23 10-30 3-4 30 10 28 7 21 3 15 1h33l19-2 18-4 17-6 14-8 12-11 6-7 8-14 4-11 2-11v-29l-4-16-7-14-9-11-13-10-14-8-23-11-33-14-28-11-27-12-18-10-14-10-9-8-9-11-7-10-8-16-5-15-3-15-1-12v-22l3-22 6-21 8-16 7-11 13-15 13-11 18-11 15-7 18-6 22-5 16-2z" fill="#FFFFFF"/>
<path transform="translate(1596,295)" d="m0 0h343l2 9v45l-2 10h-134v452l-17 2h-40l-13-1-4-1v-452h-134l-2-6-1-11v-31z" fill="#FFFFFF"/>
<path transform="translate(343,292)" d="m0 0h38l22 2-1 4-19 29-29 44-10 15-29 44-12 18-29 44-18 27-15 23 7 11 39 57 77 112 16 23 16 24 8 11 16 24 4 7-13 2-15 1h-30l-21-2-5-1-11-16-14-20-32-46-42-60-16-23-42-60-16-23-9-13 2-5 10-16 19-29 15-23 79-121 26-40 11-17 5-5z" fill="#FFFFFF"/>
<path transform="translate(81,292)" d="m0 0h38l17 2 1 1v516l-11 2-13 1h-27l-20-2-3-1v-517z" fill="##FFFFFF"/>
<path transform="translate(348,935)" d="m0 0 16 1 5 12 16 46 5 18 16-47 11-29 1-1h11l5 1 2 24 4 64v8h-13l-4-73-1-3-19 53-8 22h-11l-15-43-8-25-2-8-1 2-4 69-1 6h-12l1-24 5-71z" fill="#FFFFFF"/>
<path transform="translate(906,935)" d="m0 0 17 1 17 48 9 28 8-26 15-41 5-10h9l7 2 5 80v15h-12l-1-6-4-73-9 27-18 49-1 2h-11l-18-53-7-24-4 64-1 14h-13l6-89z" fill="#FFFFFF"/>
<path transform="translate(134,935)" d="m0 0 13 1 4 15 12 52 2 10 5-18 13-50 3-9 13-1 3 9 11 45 5 24 15-59 5-18h13l-1 7-25 88-1 1h-13l-3-9-13-55-2-10-1-1-16 60-4 14-1 1h-13l-3-8-22-88z" fill="#FFFFFF"/>
<path transform="translate(520,1107)" d="m0 0h14l6 9 12 19 11 17 14 24 3 6 1-75h11l1 1v95l-1 1h-12l-7-10-15-24-13-21-12-21-1-2v78h-12z" fill="#FFFFFF"/>
<path transform="translate(1334,935)" d="m0 0 5 5 16 25 12 19 14 24 1 2v-54l1-21 11 1v96h-13l-12-19-15-24-12-20-8-14v77h-12v-96z" fill="#FFFFFF"/>
<path transform="translate(887,1107)" d="m0 0h14l11 17 16 25 12 20 8 15v-77h11v97h-8l-6-2-15-24-12-19-13-22-6-11v78h-12z" fill="#FFFFFF"/>
<path transform="translate(1420,1107)" d="m0 0h14l11 18 13 20 11 18 11 20v-76h12v97h-13l-14-22-12-19-12-20-9-16-1 77h-11z" fill="#FFFFFF"/>
<path transform="translate(560,935)" d="m0 0 14 1 6 9 12 19 14 22 12 21 2 4v-75h12v96h-13l-15-23-11-18-15-25-6-11v50l-1 27h-11z" fill="#FFFFFF"/>
<path transform="translate(1706,1106)" d="m0 0h16l13 4 8 6 7 8 5 10 3 12v17l-3 13-6 12-5 6-11 7-13 4h-14l-13-4-9-6-6-7-6-12-3-14v-12l3-14 6-12 8-9 10-6zm4 10-11 4-8 7-6 12-2 8v17l4 13 6 9 8 6 10 3 10-1 10-5 7-8 4-8 2-7v-20l-4-13-6-8-6-5-11-4z" fill="#FFFFFF"/>
<path transform="translate(1545,1106)" d="m0 0h15l13 4 8 6 8 9 5 11 2 9v19l-4 15-5 9-6 7-10 6-13 4h-14l-13-4-10-7-6-8-4-8-3-10-1-7v-10l3-14 7-14 6-7 11-7zm4 10-10 3-8 6-7 11-3 11v15l3 12 5 10 8 7 8 3h14l9-4 7-7 5-10 3-13v-8l-3-14-5-10-5-5-5-4-5-2z" fill="#FFFFFF"/>
<path transform="translate(93,1106)" d="m0 0h16l12 4 9 6 7 9 4 8 3 10 1 13-2 14-5 14-7 9-9 7-11 4-5 1h-14l-13-4-8-6-8-9-5-11-2-8v-22l4-13 6-10 8-8 9-5zm4 10-10 3-10 9-6 12-2 10v10l3 14 5 9 4 5 12 6h15l8-4 7-7 6-12 2-9v-13l-3-12-6-11-7-6-7-3z" fill="#FFFFFF"/>
<path transform="translate(994,1106)" d="m0 0h25l16 4 9 5 8 8 6 12 2 8v21l-4 14-7 11-8 7-12 6-15 3h-27l-6-1v-96l1-1zm5 10-6 1v77l6 1h9l13-2 9-4 8-6 6-10 3-12v-15l-4-13-6-8-10-6-12-3z" fill="#FFFFFF"/>
<path transform="translate(1617,934)" d="m0 0h16l13 3 9 6 4 7 2 7v7l-3 10-5 6-7 5 6 8 4 8 7 27 1 4h-13l-3-7-6-23-5-8-8-3-15-1v42h-13v-96zm2 10-5 1v35h19l9-4 4-5 2-5v-9l-4-7-8-5-5-1z" fill="#FFFFFF"/>
<path transform="translate(747,934)" d="m0 0h16l13 3 8 5 5 7 2 7v9l-4 11-8 7-3 3 7 8 4 9 7 29h-13l-3-8-6-22-3-6-6-4-4-1-15-1v42h-13v-96zm2 10-5 1v35h19l9-4 5-6 1-3v-10l-3-6-6-5-8-2z" fill="#FFFFFF"/>
<path transform="translate(1811,1106)" d="m0 0h18l14 3 1 5-2 6-7-1-6-1h-18l-11 4-6 4-6 7-4 9-1 4v18l3 10 6 10 9 6 9 3h19l4-1 1-3 1-26h-20v-10h32v47l-9 3-12 2h-17l-13-3-11-6-7-7-8-16-2-9v-15l4-15 7-11 8-8 12-6z" fill="#FFFFFF"/>
<path transform="translate(1104,936)" d="m0 0h13v39h47v-39h12v96h-12l-1-17v-28l-46-1v46h-12l-1-1z" fill="#FFFFFF"/>
<path transform="translate(1326,1107)" d="m0 0h12v40h47v-40h12v97h-12v-46h-47v46h-12z" fill="#FFFFFF"/>
<path transform="translate(810,935)" d="m0 0h11l1 1 1 66 3 9 4 6 6 4 4 1h9l7-3 5-5 4-7 1-6 1-65 5-1h8v67l-4 13-6 9-8 6-10 3h-17l-11-4-7-6-6-12-2-8v-67z" fill="#FFFFFF"/>
<path transform="translate(1236,935)" d="m0 0h5l1 1 1 65 3 10 4 6 7 4 3 1h8l8-3 5-4 4-9 1-4 1-66 5-1h8v67l-3 11-6 10-7 6-12 4h-17l-11-4-7-6-6-12-2-9v-66z" fill="#FFFFFF"/>
<path transform="translate(823,1107)" d="m0 0h16l15 43 17 50v4h-13l-9-26-2-4h-33l-10 30h-13l2-9 23-68zm7 13-9 29-4 12v2h28l-3-10-11-33z" fill="#FFFFFF"/>
<path transform="translate(290,935)" d="m0 0h6l5 12 22 65 6 17v3h-13l-3-6-7-22v-3h-35l-2 9-7 22h-14l12-36 20-59 1-1zm-2 14-14 41v1h28l-2-9-11-33z" fill="#FFFFFF"/>
<path transform="translate(1051,935)" d="m0 0h6l5 12 19 56 9 26v3h-13l-4-10-6-18v-3l-34 1-10 30h-14l12-36 20-59 1-1zm-2 14-13 39v3h27l-2-9-11-33z" fill="#FFFFFF"/>
<path transform="translate(115,935)" d="m0 0h12l-2 4-24 28-7 8 1 4 12 18 23 34v1h-15l-11-15-20-30-4 2-5 6-1 37h-12v-96h12l1 44 13-16 8-10 9-11 6-7z" fill="#FFFFFF"/>
<path transform="translate(704,935)" d="m0 0 14 1-3 5-11 13-18 21 1 5 12 17 10 15 13 19v1h-15l-9-12-22-33-4 2-5 7-1 36h-12v-96h12l1 44 11-14 18-22z" fill="#FFFFFF"/>
<path transform="translate(459,935)" d="m0 0h51l1 11h-40v30h37v11h-37v34h42v11h-55v-96z" fill="#FFFFFF"/>
<path transform="translate(1173,1107)" d="m0 0h52v11h-40v30h38v10h-38v35h42v11h-54l-1-1v-95z" fill="#FFFFFF"/>
<path transform="translate(698,1107)" d="m0 0h52v11h-39v22l-1 8h38v10l-37 1v34h41v11h-54z" fill="#FFFFFF"/>
<path transform="translate(1531,935)" d="m0 0h51l1 1v10h-40v30h38v10l-1 1h-37v34h42v11h-54z" fill="#FFFFFF"/>
<path transform="translate(450,1107)" d="m0 0h52v11h-40v30h38v10h-38v35h42v11h-54z" fill="#FFFFFF"/>
<path transform="translate(1440,935)" d="m0 0 14 1 10 31 13 42 2 5 19-57 7-20 1-1h14l-12 34-20 56-4 6h-13l-14-41-16-49z" fill="#FFFFFF"/>
<path transform="translate(1701,934)" d="m0 0h10l14 3 2 1-1 8-1 3-13-3h-12l-8 4-3 5v8l2 6 4 2 25 12 8 8 3 7v15l-5 10-6 5-9 4-4 1h-19l-13-4-1-1v-7l1-4 11 3 9 2h7l9-3 5-5 1-2v-11l-4-6-16-8-13-7-6-7-3-7v-11l3-8 4-5 10-6z" fill="#FFFFFF"/>
<path transform="translate(282,1106)" d="m0 0h14l13 3 1 4-2 7-7-1-13-2-9 2-5 2-2 6v8l3 5 9 6 16 7 9 7 5 10v14l-5 10-8 7-13 4h-14l-16-4-2-1 1-7 1-4 6 1 9 3h16l8-4 3-6v-10l-4-6-10-6-14-6-9-7-5-10v-12l5-10 7-6 7-3z" fill="#FFFFFF"/>
<path transform="translate(650,1106)" d="m0 0h19l12 3-1 10-3 1-9-2h-17l-10 3-7 5h-2l-8 16-2 15 2 12 4 9 6 8 12 6 5 1h16l9-2h4l2 10-5 2-12 2h-17l-12-3-10-5-9-9-7-14-2-9v-17l4-14 6-10 6-7 10-6 11-4z" fill="#FFFFFF"/>
<path transform="translate(368,1106)" d="m0 0h18l14 3-2 10-3 1-9-2h-17l-12 4-9 8-5 10-2 7v17l4 12 5 8 9 6 10 3h16l13-2 2 10-10 3-7 1h-17l-12-3-11-6-9-10-5-10-3-13v-13l3-13 7-13 9-9 14-7z" fill="#FFFFFF"/>
<path transform="translate(1279,1106)" d="m0 0h18l14 3-3 11-11-2h-17l-10 3-9 6-6 10-3 9-1 6v8l2 10 6 12 7 6 9 4 4 1h17l12-2 3 9-2 2-15 3h-17l-12-3-10-5-9-9-7-14-2-8v-19l4-13 5-9 7-8 11-7 9-3z" fill="#FFFFFF"/>
<path transform="translate(161,1107)" d="m0 0h52v11h-40v31h37v10l-1 1h-36v44h-11l-2-1v-95z" fill="#FFFFFF"/>
<path transform="translate(1857,1107)" d="m0 0h15l14 27 8 16v2h2l2-6 12-24 8-15h15l-2 5-17 29-12 21-1 11v30l-1 1h-12l-1-37-2-8-14-26-9-16z" fill="#FFFFFF"/>
<path transform="translate(1853,935)" d="m0 0h7l5 8 18 36 1 1 14-28 9-16h15l-8 14-15 26-8 14-1 9v31l-1 2h-12l-1-39-4-9-14-26-10-18-2-4z" fill="#FFFFFF"/>
<path transform="translate(1090,1107)" d="m0 0h71v11h-29v85l-1 1h-12v-86h-30v-10z" fill="#FFFFFF"/>
<path transform="translate(1771,936)" d="m0 0h72v10l-29 1v85h-13v-86h-30z" fill="#FFFFFF"/>
<path transform="translate(1612,1107)" d="m0 0h13v86h41v11h-53l-1-1z" fill="#FFFFFF"/>
<path transform="translate(415,1107)" d="m0 0h12l1 1v87l-1 9h-10l-2-1z" fill="#FFFFFF"/>
<path transform="translate(1749,936)" d="m0 0h13v96h-13z" fill="#FFFFFF"/>
<path transform="translate(1416,936)" d="m0 0h12v96h-12z" fill="#FFFFFF"/>
</svg>
